<mxfile host="app.diagrams.net" agent="Mozilla/5.0 (Windows NT 10.0; Win64; x64) AppleWebKit/537.36 (KHTML, like Gecko) Chrome/134.0.0.0 Safari/537.36 Edg/134.0.0.0" version="26.2.12">
  <diagram name="第 1 页" id="tObvsYaJb5dgwV8iRARX">
    <mxGraphModel dx="822" dy="511" grid="1" gridSize="10" guides="1" tooltips="1" connect="1" arrows="1" fold="1" page="1" pageScale="1" pageWidth="827" pageHeight="1169" math="0" shadow="0">
      <root>
        <mxCell id="0" />
        <mxCell id="1" parent="0" />
        <mxCell id="Qe0xiFX_vQxHnRVBYj-K-60" value="" style="group" vertex="1" connectable="0" parent="1">
          <mxGeometry x="80" y="50" width="350" height="390" as="geometry" />
        </mxCell>
        <mxCell id="Qe0xiFX_vQxHnRVBYj-K-1" value="逻辑视图" style="shape=umlFrame;whiteSpace=wrap;html=1;pointerEvents=0;" vertex="1" parent="Qe0xiFX_vQxHnRVBYj-K-60">
          <mxGeometry width="350" height="390" as="geometry" />
        </mxCell>
        <mxCell id="Qe0xiFX_vQxHnRVBYj-K-44" style="edgeStyle=orthogonalEdgeStyle;rounded=0;orthogonalLoop=1;jettySize=auto;html=1;exitX=0.5;exitY=1;exitDx=0;exitDy=0;entryX=0.5;entryY=0;entryDx=0;entryDy=0;" edge="1" parent="Qe0xiFX_vQxHnRVBYj-K-60" source="Qe0xiFX_vQxHnRVBYj-K-3" target="Qe0xiFX_vQxHnRVBYj-K-15">
          <mxGeometry relative="1" as="geometry" />
        </mxCell>
        <mxCell id="Qe0xiFX_vQxHnRVBYj-K-45" style="edgeStyle=orthogonalEdgeStyle;rounded=0;orthogonalLoop=1;jettySize=auto;html=1;exitX=1;exitY=0.5;exitDx=0;exitDy=0;entryX=0;entryY=0.25;entryDx=0;entryDy=0;dashed=1;" edge="1" parent="Qe0xiFX_vQxHnRVBYj-K-60" source="Qe0xiFX_vQxHnRVBYj-K-3" target="Qe0xiFX_vQxHnRVBYj-K-37">
          <mxGeometry relative="1" as="geometry">
            <Array as="points">
              <mxPoint x="140" y="170" />
              <mxPoint x="140" y="40" />
            </Array>
          </mxGeometry>
        </mxCell>
        <mxCell id="Qe0xiFX_vQxHnRVBYj-K-46" style="edgeStyle=orthogonalEdgeStyle;rounded=0;orthogonalLoop=1;jettySize=auto;html=1;exitX=1;exitY=0.5;exitDx=0;exitDy=0;entryX=0;entryY=0.25;entryDx=0;entryDy=0;dashed=1;" edge="1" parent="Qe0xiFX_vQxHnRVBYj-K-60" source="Qe0xiFX_vQxHnRVBYj-K-3" target="Qe0xiFX_vQxHnRVBYj-K-12">
          <mxGeometry relative="1" as="geometry">
            <Array as="points">
              <mxPoint x="140" y="170" />
              <mxPoint x="140" y="100" />
            </Array>
          </mxGeometry>
        </mxCell>
        <mxCell id="Qe0xiFX_vQxHnRVBYj-K-47" style="edgeStyle=orthogonalEdgeStyle;rounded=0;orthogonalLoop=1;jettySize=auto;html=1;exitX=1;exitY=0.5;exitDx=0;exitDy=0;entryX=0;entryY=0.25;entryDx=0;entryDy=0;dashed=1;" edge="1" parent="Qe0xiFX_vQxHnRVBYj-K-60" source="Qe0xiFX_vQxHnRVBYj-K-3" target="Qe0xiFX_vQxHnRVBYj-K-14">
          <mxGeometry relative="1" as="geometry">
            <Array as="points">
              <mxPoint x="140" y="170" />
              <mxPoint x="140" y="160" />
            </Array>
          </mxGeometry>
        </mxCell>
        <mxCell id="Qe0xiFX_vQxHnRVBYj-K-48" style="edgeStyle=orthogonalEdgeStyle;rounded=0;orthogonalLoop=1;jettySize=auto;html=1;exitX=1;exitY=0.5;exitDx=0;exitDy=0;entryX=0;entryY=0.25;entryDx=0;entryDy=0;dashed=1;" edge="1" parent="Qe0xiFX_vQxHnRVBYj-K-60" source="Qe0xiFX_vQxHnRVBYj-K-3" target="Qe0xiFX_vQxHnRVBYj-K-28">
          <mxGeometry relative="1" as="geometry">
            <Array as="points">
              <mxPoint x="140" y="170" />
              <mxPoint x="140" y="220" />
            </Array>
          </mxGeometry>
        </mxCell>
        <mxCell id="Qe0xiFX_vQxHnRVBYj-K-49" style="edgeStyle=orthogonalEdgeStyle;rounded=0;orthogonalLoop=1;jettySize=auto;html=1;exitX=1;exitY=0.5;exitDx=0;exitDy=0;entryX=0;entryY=0.25;entryDx=0;entryDy=0;dashed=1;" edge="1" parent="Qe0xiFX_vQxHnRVBYj-K-60" source="Qe0xiFX_vQxHnRVBYj-K-3" target="Qe0xiFX_vQxHnRVBYj-K-21">
          <mxGeometry relative="1" as="geometry">
            <Array as="points">
              <mxPoint x="140" y="170" />
              <mxPoint x="140" y="280" />
            </Array>
          </mxGeometry>
        </mxCell>
        <mxCell id="Qe0xiFX_vQxHnRVBYj-K-50" style="edgeStyle=orthogonalEdgeStyle;rounded=0;orthogonalLoop=1;jettySize=auto;html=1;exitX=1;exitY=0.5;exitDx=0;exitDy=0;entryX=0;entryY=0.25;entryDx=0;entryDy=0;dashed=1;" edge="1" parent="Qe0xiFX_vQxHnRVBYj-K-60" source="Qe0xiFX_vQxHnRVBYj-K-3" target="Qe0xiFX_vQxHnRVBYj-K-36">
          <mxGeometry relative="1" as="geometry">
            <Array as="points">
              <mxPoint x="140" y="170" />
              <mxPoint x="140" y="340" />
            </Array>
          </mxGeometry>
        </mxCell>
        <mxCell id="Qe0xiFX_vQxHnRVBYj-K-3" value="&lt;p style=&quot;margin:0px;margin-top:4px;text-align:center;&quot;&gt;&lt;/p&gt;&lt;div style=&quot;height:2px;&quot;&gt;&lt;/div&gt;&lt;div style=&quot;text-align: center;&quot;&gt;&lt;span style=&quot;background-color: transparent;&quot;&gt;&lt;b&gt;Controller&lt;/b&gt;&lt;/span&gt;&lt;/div&gt;&lt;hr size=&quot;1&quot; style=&quot;border-style:solid;&quot;&gt;&lt;div style=&quot;height:2px;&quot;&gt;&lt;/div&gt;" style="verticalAlign=top;align=left;overflow=fill;html=1;whiteSpace=wrap;" vertex="1" parent="Qe0xiFX_vQxHnRVBYj-K-60">
          <mxGeometry x="20" y="150" width="100" height="40" as="geometry" />
        </mxCell>
        <mxCell id="Qe0xiFX_vQxHnRVBYj-K-4" style="edgeStyle=orthogonalEdgeStyle;rounded=0;orthogonalLoop=1;jettySize=auto;html=1;exitX=0.5;exitY=1;exitDx=0;exitDy=0;" edge="1" parent="Qe0xiFX_vQxHnRVBYj-K-60" source="Qe0xiFX_vQxHnRVBYj-K-3" target="Qe0xiFX_vQxHnRVBYj-K-3">
          <mxGeometry relative="1" as="geometry" />
        </mxCell>
        <mxCell id="Qe0xiFX_vQxHnRVBYj-K-54" style="edgeStyle=orthogonalEdgeStyle;rounded=0;orthogonalLoop=1;jettySize=auto;html=1;exitX=0;exitY=0.75;exitDx=0;exitDy=0;entryX=1;entryY=0.5;entryDx=0;entryDy=0;dashed=1;" edge="1" parent="Qe0xiFX_vQxHnRVBYj-K-60" source="Qe0xiFX_vQxHnRVBYj-K-12" target="Qe0xiFX_vQxHnRVBYj-K-15">
          <mxGeometry relative="1" as="geometry">
            <Array as="points">
              <mxPoint x="160" y="120" />
              <mxPoint x="160" y="240" />
            </Array>
          </mxGeometry>
        </mxCell>
        <mxCell id="Qe0xiFX_vQxHnRVBYj-K-12" value="&lt;p style=&quot;margin:0px;margin-top:4px;text-align:center;&quot;&gt;&lt;/p&gt;&lt;div style=&quot;height:2px;&quot;&gt;&lt;/div&gt;&lt;div style=&quot;text-align: center;&quot;&gt;&lt;span style=&quot;background-color: transparent;&quot;&gt;&lt;b&gt;BugAnalysisService&lt;/b&gt;&lt;/span&gt;&lt;/div&gt;&lt;hr size=&quot;1&quot; style=&quot;border-style:solid;&quot;&gt;&lt;div style=&quot;height:2px;&quot;&gt;&lt;/div&gt;" style="verticalAlign=top;align=left;overflow=fill;html=1;whiteSpace=wrap;" vertex="1" parent="Qe0xiFX_vQxHnRVBYj-K-60">
          <mxGeometry x="180" y="90" width="160" height="40" as="geometry" />
        </mxCell>
        <mxCell id="Qe0xiFX_vQxHnRVBYj-K-56" style="edgeStyle=orthogonalEdgeStyle;rounded=0;orthogonalLoop=1;jettySize=auto;html=1;exitX=0;exitY=0.75;exitDx=0;exitDy=0;entryX=1;entryY=0.5;entryDx=0;entryDy=0;dashed=1;" edge="1" parent="Qe0xiFX_vQxHnRVBYj-K-60" source="Qe0xiFX_vQxHnRVBYj-K-14" target="Qe0xiFX_vQxHnRVBYj-K-15">
          <mxGeometry relative="1" as="geometry">
            <Array as="points">
              <mxPoint x="160" y="180" />
              <mxPoint x="160" y="240" />
            </Array>
          </mxGeometry>
        </mxCell>
        <mxCell id="Qe0xiFX_vQxHnRVBYj-K-14" value="&lt;p style=&quot;margin:0px;margin-top:4px;text-align:center;&quot;&gt;&lt;/p&gt;&lt;div style=&quot;height:2px;&quot;&gt;&lt;/div&gt;&lt;div style=&quot;text-align: center;&quot;&gt;&lt;span style=&quot;background-color: transparent;&quot;&gt;&lt;b&gt;ModelManagementService&lt;/b&gt;&lt;/span&gt;&lt;/div&gt;&lt;hr size=&quot;1&quot; style=&quot;border-style:solid;&quot;&gt;&lt;div style=&quot;height:2px;&quot;&gt;&lt;/div&gt;" style="verticalAlign=top;align=left;overflow=fill;html=1;whiteSpace=wrap;" vertex="1" parent="Qe0xiFX_vQxHnRVBYj-K-60">
          <mxGeometry x="180" y="150" width="160" height="40" as="geometry" />
        </mxCell>
        <mxCell id="Qe0xiFX_vQxHnRVBYj-K-15" value="&lt;p style=&quot;margin:0px;margin-top:4px;text-align:center;&quot;&gt;&lt;/p&gt;&lt;div style=&quot;height:2px;&quot;&gt;&lt;/div&gt;&lt;div style=&quot;text-align: center;&quot;&gt;&lt;span style=&quot;background-color: transparent;&quot;&gt;&lt;b&gt;ConfigService&lt;/b&gt;&lt;/span&gt;&lt;/div&gt;&lt;hr size=&quot;1&quot; style=&quot;border-style:solid;&quot;&gt;&lt;div style=&quot;height:2px;&quot;&gt;&lt;/div&gt;" style="verticalAlign=top;align=left;overflow=fill;html=1;whiteSpace=wrap;" vertex="1" parent="Qe0xiFX_vQxHnRVBYj-K-60">
          <mxGeometry x="20" y="220" width="100" height="40" as="geometry" />
        </mxCell>
        <mxCell id="Qe0xiFX_vQxHnRVBYj-K-57" style="edgeStyle=orthogonalEdgeStyle;rounded=0;orthogonalLoop=1;jettySize=auto;html=1;exitX=0;exitY=0.75;exitDx=0;exitDy=0;entryX=1;entryY=0.5;entryDx=0;entryDy=0;dashed=1;" edge="1" parent="Qe0xiFX_vQxHnRVBYj-K-60" source="Qe0xiFX_vQxHnRVBYj-K-21" target="Qe0xiFX_vQxHnRVBYj-K-15">
          <mxGeometry relative="1" as="geometry">
            <Array as="points">
              <mxPoint x="160" y="300" />
              <mxPoint x="160" y="240" />
            </Array>
          </mxGeometry>
        </mxCell>
        <mxCell id="Qe0xiFX_vQxHnRVBYj-K-21" value="&lt;p style=&quot;margin: 4px 0px 0px;&quot;&gt;&lt;/p&gt;&lt;div style=&quot;height:2px;&quot;&gt;&lt;/div&gt;&lt;b style=&quot;&quot;&gt;RetrievalService&lt;/b&gt;&lt;hr style=&quot;border-style:solid;&quot; size=&quot;1&quot;&gt;&lt;div style=&quot;height:2px;&quot;&gt;&lt;/div&gt;" style="verticalAlign=top;align=center;overflow=fill;html=1;whiteSpace=wrap;noLabel=0;allowArrows=1;" vertex="1" parent="Qe0xiFX_vQxHnRVBYj-K-60">
          <mxGeometry x="180" y="270" width="160" height="40" as="geometry" />
        </mxCell>
        <mxCell id="Qe0xiFX_vQxHnRVBYj-K-58" style="edgeStyle=orthogonalEdgeStyle;rounded=0;orthogonalLoop=1;jettySize=auto;html=1;exitX=0;exitY=0.75;exitDx=0;exitDy=0;dashed=1;" edge="1" parent="Qe0xiFX_vQxHnRVBYj-K-60" source="Qe0xiFX_vQxHnRVBYj-K-28">
          <mxGeometry relative="1" as="geometry">
            <mxPoint x="120.00000000000011" y="240.0967741935484" as="targetPoint" />
          </mxGeometry>
        </mxCell>
        <mxCell id="Qe0xiFX_vQxHnRVBYj-K-28" value="&lt;p style=&quot;margin: 4px 0px 0px;&quot;&gt;&lt;/p&gt;&lt;p style=&quot;margin:0px;margin-left:4px;&quot;&gt;&lt;b style=&quot;background-color: transparent; color: light-dark(rgb(0, 0, 0), rgb(255, 255, 255));&quot;&gt;CodeBaseService&lt;/b&gt;&lt;/p&gt;&lt;hr style=&quot;border-style:solid;&quot; size=&quot;1&quot;&gt;&lt;p style=&quot;margin:0px;margin-left:4px;&quot;&gt;&lt;br&gt;&lt;/p&gt;" style="verticalAlign=top;align=center;overflow=fill;html=1;whiteSpace=wrap;" vertex="1" parent="Qe0xiFX_vQxHnRVBYj-K-60">
          <mxGeometry x="180" y="210" width="160" height="40" as="geometry" />
        </mxCell>
        <mxCell id="Qe0xiFX_vQxHnRVBYj-K-59" style="edgeStyle=orthogonalEdgeStyle;rounded=0;orthogonalLoop=1;jettySize=auto;html=1;exitX=0;exitY=0.75;exitDx=0;exitDy=0;entryX=1;entryY=0.5;entryDx=0;entryDy=0;dashed=1;" edge="1" parent="Qe0xiFX_vQxHnRVBYj-K-60" source="Qe0xiFX_vQxHnRVBYj-K-36" target="Qe0xiFX_vQxHnRVBYj-K-15">
          <mxGeometry relative="1" as="geometry">
            <Array as="points">
              <mxPoint x="160" y="360" />
              <mxPoint x="160" y="240" />
            </Array>
          </mxGeometry>
        </mxCell>
        <mxCell id="Qe0xiFX_vQxHnRVBYj-K-36" value="&lt;p style=&quot;margin: 4px 0px 0px;&quot;&gt;&lt;b&gt;FixService&lt;/b&gt;&lt;/p&gt;&lt;hr style=&quot;border-style:solid;&quot; size=&quot;1&quot;&gt;&lt;div style=&quot;height:2px;&quot;&gt;&lt;/div&gt;" style="verticalAlign=middle;align=center;overflow=fill;html=1;whiteSpace=wrap;noLabel=0;expand=1;rotatable=1;resizable=1;deletable=1;treeFolding=0;treeMoving=0;enumerate=0;comic=0;resizeWidth=0;fixedWidth=0;autosize=0;movableLabel=0;metaEdit=0;collapsible=0;dropTarget=0;container=0;fixDash=0;snapToPoint=0;allowArrows=1;portConstraintRotation=0;" vertex="1" parent="Qe0xiFX_vQxHnRVBYj-K-60">
          <mxGeometry x="180" y="330" width="160" height="40" as="geometry" />
        </mxCell>
        <mxCell id="Qe0xiFX_vQxHnRVBYj-K-53" style="edgeStyle=orthogonalEdgeStyle;rounded=0;orthogonalLoop=1;jettySize=auto;html=1;exitX=0;exitY=0.75;exitDx=0;exitDy=0;entryX=1;entryY=0.5;entryDx=0;entryDy=0;dashed=1;" edge="1" parent="Qe0xiFX_vQxHnRVBYj-K-60" source="Qe0xiFX_vQxHnRVBYj-K-37" target="Qe0xiFX_vQxHnRVBYj-K-15">
          <mxGeometry relative="1" as="geometry">
            <Array as="points">
              <mxPoint x="160" y="60" />
              <mxPoint x="160" y="240" />
            </Array>
          </mxGeometry>
        </mxCell>
        <mxCell id="Qe0xiFX_vQxHnRVBYj-K-37" value="&lt;p style=&quot;margin:0px;margin-top:4px;text-align:center;&quot;&gt;&lt;b&gt;LocationService&lt;/b&gt;&lt;/p&gt;&lt;hr size=&quot;1&quot; style=&quot;border-style:solid;&quot;&gt;&lt;div style=&quot;height:2px;&quot;&gt;&lt;/div&gt;" style="verticalAlign=top;align=left;overflow=fill;html=1;whiteSpace=wrap;" vertex="1" parent="Qe0xiFX_vQxHnRVBYj-K-60">
          <mxGeometry x="180" y="30" width="160" height="40" as="geometry" />
        </mxCell>
        <mxCell id="Qe0xiFX_vQxHnRVBYj-K-43" style="edgeStyle=orthogonalEdgeStyle;rounded=0;orthogonalLoop=1;jettySize=auto;html=1;exitX=0.5;exitY=1;exitDx=0;exitDy=0;" edge="1" parent="Qe0xiFX_vQxHnRVBYj-K-60" source="Qe0xiFX_vQxHnRVBYj-K-12" target="Qe0xiFX_vQxHnRVBYj-K-12">
          <mxGeometry relative="1" as="geometry" />
        </mxCell>
      </root>
    </mxGraphModel>
  </diagram>
</mxfile>
